PathFileType	4	(X/Y/Z)	 s01c0302.trc
DataRate	CameraRate	NumFrames	NumMarkers	Units	OrigDataRate	OrigDataStartFrame	OrigNumFrames
200	200	4	48	mm	200	1001	2000
Frame#	Time	racr			lacr			c7			jug			rlel			rdr			llel			ldr			s2			lic			ric			lasi			rasi			rpsi			lpsi			rgt			lgt			rth1			rth2			rth3			rth4			rlfc			rsh1			rsh2			rsh3			rsh4			rlmal			rmmal			rcal			rtoe			rmt5			lth1			lth2			lth4			lth3			llfc			lsh1			lsh2			lsh3			lsh4			llmal			lmmal			lcal			ltoe			lmt5			SBIKE			LBIKE			RBIKE			
		X1	Y1	Z1	X2	Y2	Z2	X3	Y3	Z3	X4	Y4	Z4	X5	Y5	Z5	X6	Y6	Z6	X7	Y7	Z7	X8	Y8	Z8	X9	Y9	Z9	X10	Y10	Z10	X11	Y11	Z11	X12	Y12	Z12	X13	Y13	Z13	X14	Y14	Z14	X15	Y15	Z15	X16	Y16	Z16	X17	Y17	Z17	X18	Y18	Z18	X19	Y19	Z19	X20	Y20	Z20	X21	Y21	Z21	X22	Y22	Z22	X23	Y23	Z23	X24	Y24	Z24	X25	Y25	Z25	X26	Y26	Z26	X27	Y27	Z27	X28	Y28	Z28	X29	Y29	Z29	X30	Y30	Z30	X31	Y31	Z31	X32	Y32	Z32	X33	Y33	Z33	X34	Y34	Z34	X35	Y35	Z35	X36	Y36	Z36	X37	Y37	Z37	X38	Y38	Z38	X39	Y39	Z39	X40	Y40	Z40	X41	Y41	Z41	X42	Y42	Z42	X43	Y43	Z43	X44	Y44	Z44	X45	Y45	Z45	X46	Y46	Z46	X47	Y47	Z47	X48	Y48	Z48	
1001	5.0050	715.910031	1365.653648	-107.531170	719.181424	1334.202984	-435.484354	689.940405	1433.286888	-264.360739	670.991778	1272.918060	-268.170116	666.358382	1092.820515	7.081168	743.012876	851.777385	-58.679629	607.340055	1081.065270	-547.267484	729.674654	886.241357	-435.323398	-150.315689	375.689632	-104.024591	279.739553	1256.934296	-389.844956	349.179668	1200.407125	-75.252735	305.971905	1197.528073	-388.821448	362.133412	1154.072515	-105.994908	201.390351	1250.252287	-136.082936	171.501961	1266.987417	-235.065640	273.018269	1081.430063	-43.303116	232.372128	1131.370600	-417.390626	302.720881	967.553116	-28.244538	323.489241	887.787984	-37.000548	340.152198	800.363767	-44.718516	377.229885	899.842724	-48.506076	331.204993	682.021688	-68.902459	279.032235	578.125334	-34.890982	254.884185	496.915988	-38.277698	221.729993	414.761994	-47.098049	301.246499	482.003530	-74.059391	175.614465	307.545266	-67.863872	217.086281	309.569149	-143.074847	136.215212	333.239872	-119.036151	273.178184	99.510260	-142.139556	193.983563	158.632808	-60.302719	318.702742	1048.670238	-443.110651	402.797371	1025.682616	-461.546305	420.396124	1076.943723	-452.083799	482.225143	992.728201	-466.337771	574.944217	917.915185	-465.291774	484.466056	862.378992	-477.298969	427.231403	795.571836	-465.650740	371.616646	734.243847	-443.880773	474.568716	761.569000	-447.757879	282.657884	630.098909	-415.197062	316.031288	626.724402	-338.424578	223.247637	625.942970	-369.448704	434.099401	447.591089	-370.003315	337.246711	490.411833	-439.061142	-224.037947	893.309044	-250.765689	-12.531045	85.246933	-455.753065	-21.484603	80.948224	-55.571121	
1002	5.0100	716.604861	1364.537062	-109.437246	718.196205	1332.949381	-437.338618	689.985238	1432.347713	-266.021280	670.645847	1272.339655	-269.798397	666.407522	1092.032757	6.084731	742.861168	851.309564	-58.891963	604.508725	1080.222808	-547.699311	728.955743	886.379108	-435.349812	-152.001644	354.891530	-103.091100	278.979798	1257.365406	-389.570840	348.997590	1200.885288	-75.197321	308.565337	1198.595624	-391.894653	362.572676	1154.538225	-105.256596	201.348563	1252.068311	-135.270965	171.571070	1268.457484	-234.462713	273.110325	1082.343418	-42.443528	231.124759	1131.922550	-415.581109	304.280671	967.778634	-28.681715	326.096490	888.305613	-38.023961	343.985557	801.078006	-47.114310	379.472378	901.256737	-49.302742	334.786928	682.921602	-70.465059	279.784665	580.066651	-37.009944	252.639478	499.883274	-40.835066	216.343997	419.007513	-50.012677	298.383897	483.335388	-76.680894	167.032366	313.484007	-70.282079	208.343641	314.286484	-145.576421	127.433733	338.598947	-121.304517	263.314462	103.930675	-142.355281	184.708594	164.377184	-61.084273	317.010438	1047.791376	-440.395797	400.942345	1024.259953	-458.625623	418.861339	1075.530418	-450.024164	480.125612	990.732753	-463.617738	575.408052	916.648886	-461.124352	485.087542	859.245238	-473.474940	428.190806	791.530753	-463.749662	373.564994	729.840420	-443.108337	475.786341	757.771964	-445.779441	284.665279	623.083544	-415.346319	317.357004	620.642313	-338.193652	224.377710	616.013915	-370.023279	443.730579	448.169373	-370.646750	344.521176	485.670513	-439.492060	-224.088043	893.234466	-250.972792	-12.552217	85.154492	-455.787717	-21.546159	80.913671	-55.606675	
1003	5.0150	717.280142	1363.469564	-111.387144	717.065365	1331.398064	-439.193817	689.900476	1431.428747	-267.753434	670.183713	1271.744509	-271.369164	666.440472	1091.277938	4.986992	742.673220	850.908964	-59.031115	602.004215	1079.063338	-548.154091	728.342392	886.432782	-435.556415	-153.668206	334.114569	-102.383888	278.181803	1257.681473	-389.395055	348.629635	1201.399302	-75.098140	311.090169	1199.487817	-394.802623	361.970928	1155.060184	-105.030092	201.200504	1253.855730	-134.465515	171.643962	1269.959162	-233.942817	273.019191	1083.109570	-41.261360	230.305143	1132.413820	-414.000026	306.077789	967.822183	-29.053657	329.207944	888.827626	-39.367027	348.526453	801.984288	-49.664998	382.251571	902.677161	-50.550437	339.197033	683.767315	-72.304236	281.163442	582.248606	-39.416402	250.925094	503.216060	-43.600374	211.556052	423.731024	-53.201008	295.638672	485.118731	-80.099059	158.593681	319.906412	-73.139002	200.372358	319.445352	-147.907445	118.924755	344.509083	-124.153176	253.999002	108.954661	-142.191213	175.525148	170.715110	-62.021799	315.240791	1046.177538	-437.644570	398.926925	1021.667896	-455.458782	417.301690	1073.065062	-448.027018	477.881089	987.733526	-460.779967	574.495849	913.090164	-457.488891	484.878306	854.318199	-469.624085	428.396806	786.127795	-461.713822	374.024342	723.825427	-442.251570	476.005744	752.321550	-443.557648	286.015041	614.831105	-415.326950	318.299852	613.456625	-337.956776	225.266808	604.900836	-370.880016	452.311435	447.916175	-370.850867	351.531260	480.242918	-440.109628	-224.108804	893.174796	-251.230446	-12.568415	85.074288	-455.821446	-21.564739	80.917599	-55.649673	
1004	5.0200	717.859631	1362.349849	-113.338735	715.924630	1329.667930	-441.067361	689.686948	1430.575823	-269.523763	669.636957	1271.296905	-272.844789	666.268542	1090.603240	3.906704	742.437878	850.638820	-59.145342	599.469322	1077.763630	-548.778278	727.612391	886.510681	-435.749300	-155.302094	313.320905	-101.901307	277.846226	1257.897915	-389.461416	347.996148	1202.046389	-74.917986	313.462902	1200.166174	-397.432251	361.246049	1155.644014	-104.721598	201.011243	1255.565014	-133.846807	171.782593	1271.192267	-233.582127	272.950524	1083.863300	-40.301746	229.665839	1132.758239	-412.380173	308.222677	967.665402	-29.413112	332.743219	889.462352	-40.910263	353.799555	803.028105	-52.100800	385.233597	904.314463	-52.191074	344.285390	684.688989	-74.364728	283.079520	584.763288	-41.779561	249.958576	507.015009	-46.284239	207.622540	429.013826	-56.199004	293.949159	487.428717	-82.964691	150.240165	327.007354	-76.273573	193.146386	325.027533	-150.073003	110.934880	350.975427	-127.707749	245.017247	114.482349	-141.497883	166.336349	177.802977	-62.958913	313.485700	1044.020885	-434.885085	396.839095	1018.250532	-452.460967	415.690169	1069.601553	-446.383133	475.518768	983.777976	-457.841245	573.166072	907.823728	-453.397865	483.758273	848.057424	-466.155443	427.960856	779.508616	-459.643834	373.787913	716.218897	-441.166644	475.452174	745.402774	-441.122233	287.020342	605.608401	-415.265834	318.936542	605.189883	-337.649094	226.022040	592.761777	-371.758249	460.255605	447.182160	-371.198064	358.084045	474.006861	-440.698779	-224.116548	893.150244	-251.542081	-12.578852	85.007033	-455.852347	-21.583421	80.912770	-55.697307	
